<svg width="201" height="59" viewBox="0 0 201 59" fill="none" xmlns="http://www.w3.org/2000/svg">
<g clip-path="url(#clip0_210_11652)">
<path d="M196.133 0.819336H4.10195C2.28955 0.819336 0.820312 2.28685 0.820312 4.09711V54.9027C0.820312 56.7129 2.28955 58.1805 4.10195 58.1805H196.133C197.946 58.1805 199.415 56.7129 199.415 54.9027V4.09711C199.415 2.28685 197.946 0.819336 196.133 0.819336Z" stroke="white" stroke-width="2"/>
<path d="M71.8799 15.4511C71.8799 16.5801 71.5973 17.568 70.8909 18.2737C70.0431 19.1204 69.0541 19.5438 67.7824 19.5438C66.5108 19.5438 65.5217 19.1204 64.674 18.2737C63.8262 17.4269 63.4023 16.439 63.4023 15.1689C63.4023 13.8987 63.8262 12.9109 64.674 12.0641C65.5217 11.2174 66.5108 10.7939 67.7824 10.7939C68.3476 10.7939 68.9128 10.9351 69.4779 11.2174C70.0431 11.4996 70.467 11.7819 70.7495 12.2052L70.0431 12.9108C69.4779 12.2052 68.7714 11.923 67.7824 11.923C66.9346 11.923 66.0869 12.2052 65.5217 12.9108C64.8152 13.4753 64.5327 14.3221 64.5327 15.31C64.5327 16.2979 64.8152 17.1446 65.5217 17.7092C66.2282 18.2737 66.9346 18.697 67.7824 18.697C68.7714 18.697 69.4779 18.4148 70.1844 17.7092C70.6082 17.2857 70.8909 16.7212 70.8909 16.0156H67.7824V15.0278H71.8799C71.8799 15.0278 71.8799 15.1689 71.8799 15.4511Z" fill="white" stroke="white" stroke-width="0.2" stroke-miterlimit="10"/>
<path d="M78.3828 11.923H74.5679V14.6044H78.1001V15.5923H74.5679V18.2737H78.3828V19.2615H73.4375V10.7939H78.3828V11.923Z" fill="white" stroke="white" stroke-width="0.2" stroke-miterlimit="10"/>
<path d="M83.0444 19.2615H81.9137V11.7819H79.5117V10.7939H85.4457V11.7819H83.0444V19.2615Z" fill="white" stroke="white" stroke-width="0.2" stroke-miterlimit="10"/>
<path d="M89.543 19.2615V10.7939H90.6727V19.2615H89.543Z" fill="white" stroke="white" stroke-width="0.2" stroke-miterlimit="10"/>
<path d="M95.4772 19.2615H94.3475V11.7819H91.9453V10.7939H97.7382V11.7819H95.3361V19.2615H95.4772Z" fill="white" stroke="white" stroke-width="0.2" stroke-miterlimit="10"/>
<path d="M108.899 18.2737C108.051 19.1204 107.062 19.5438 105.79 19.5438C104.519 19.5438 103.53 19.1204 102.682 18.2737C101.834 17.4269 101.41 16.439 101.41 15.1689C101.41 13.8987 101.834 12.9109 102.682 12.0641C103.53 11.2174 104.519 10.7939 105.79 10.7939C107.062 10.7939 108.051 11.2174 108.899 12.0641C109.746 12.9109 110.17 13.8987 110.17 15.1689C110.17 16.2979 109.746 17.4269 108.899 18.2737ZM103.53 17.568C104.095 18.1326 104.943 18.5559 105.79 18.5559C106.639 18.5559 107.486 18.2737 108.051 17.568C108.617 17.0035 109.04 16.1568 109.04 15.1689C109.04 14.181 108.758 13.3342 108.051 12.7697C107.486 12.2052 106.639 11.7819 105.79 11.7819C104.943 11.7819 104.095 12.0641 103.53 12.7697C102.965 13.3342 102.541 14.181 102.541 15.1689C102.541 16.0156 102.824 16.8624 103.53 17.568Z" fill="white" stroke="white" stroke-width="0.2" stroke-miterlimit="10"/>
<path d="M111.727 19.2615V10.7939H112.998L117.095 17.4269V15.7334V10.7939H118.226V19.2615H117.095L112.715 12.3464V14.0398V19.2615H111.727Z" fill="white" stroke="white" stroke-width="0.2" stroke-miterlimit="10"/>
<path d="M101.129 31.6808C97.7386 31.6808 95.0542 34.221 95.0542 37.7492C95.0542 41.1362 97.7386 43.8176 101.129 43.8176C104.52 43.8176 107.205 41.2774 107.205 37.7492C107.205 34.221 104.52 31.6808 101.129 31.6808ZM101.129 41.2774C99.2925 41.2774 97.7386 39.725 97.7386 37.6081C97.7386 35.4912 99.2925 33.9388 101.129 33.9388C102.966 33.9388 104.52 35.3501 104.52 37.6081C104.52 39.8661 102.966 41.2774 101.129 41.2774ZM87.9889 31.6808C84.5981 31.6808 81.9137 34.221 81.9137 37.7492C81.9137 41.1362 84.5981 43.8176 87.9889 43.8176C91.3805 43.8176 94.0648 41.2774 94.0648 37.7492C94.0648 34.221 91.3805 31.6808 87.9889 31.6808ZM87.9889 41.2774C86.1528 41.2774 84.5981 39.725 84.5981 37.6081C84.5981 35.4912 86.1528 33.9388 87.9889 33.9388C89.8258 33.9388 91.3805 35.3501 91.3805 37.6081C91.3805 39.8661 89.8258 41.2774 87.9889 41.2774ZM72.3058 33.5154V36.0557H78.3813C78.2401 37.467 77.6749 38.596 76.9684 39.3016C76.1207 40.1483 74.7077 41.1362 72.3058 41.1362C68.4909 41.1362 65.665 38.1726 65.665 34.3622C65.665 30.5518 68.6322 27.5881 72.3058 27.5881C74.2839 27.5881 75.8381 28.4349 76.9684 29.4228L78.8052 27.5881C77.251 26.1769 75.2729 25.0479 72.4471 25.0479C67.3605 25.0479 62.9805 29.2817 62.9805 34.3622C62.9805 39.4427 67.3605 43.6765 72.4471 43.6765C75.2729 43.6765 77.251 42.8298 78.9465 40.9951C80.6421 39.3016 81.2071 36.9024 81.2071 35.0679C81.2071 34.5033 81.2072 33.9388 81.0659 33.5154H72.3058ZM136.453 35.4912C135.888 34.0799 134.474 31.6808 131.366 31.6808C128.258 31.6808 125.715 34.0799 125.715 37.7492C125.715 41.1362 128.258 43.8176 131.649 43.8176C134.333 43.8176 136.029 42.1242 136.594 41.1362L134.616 39.725C133.91 40.7128 133.061 41.4185 131.649 41.4185C130.236 41.4185 129.388 40.854 128.681 39.5839L136.735 36.1968L136.453 35.4912ZM128.258 37.467C128.258 35.209 130.095 33.9388 131.366 33.9388C132.355 33.9388 133.344 34.5033 133.627 35.209L128.258 37.467ZM121.617 43.2531H124.301V25.6124H121.617V43.2531ZM117.378 32.9509C116.671 32.2453 115.541 31.5397 114.128 31.5397C111.161 31.5397 108.335 34.221 108.335 37.6081C108.335 40.9951 111.02 43.5354 114.128 43.5354C115.541 43.5354 116.671 42.8298 117.236 42.1242H117.378V42.9709C117.378 45.2289 116.107 46.499 114.128 46.499C112.574 46.499 111.444 45.3701 111.161 44.3821L108.9 45.3701C109.607 46.9224 111.302 48.8982 114.27 48.8982C117.378 48.8982 119.922 47.0635 119.922 42.6887V31.9631H117.378V32.9509ZM114.27 41.2774C112.433 41.2774 110.878 39.725 110.878 37.6081C110.878 35.4912 112.433 33.9388 114.27 33.9388C116.107 33.9388 117.519 35.4912 117.519 37.6081C117.519 39.725 116.107 41.2774 114.27 41.2774ZM148.745 25.6124H142.387V43.2531H145.071V36.6202H148.745C151.712 36.6202 154.538 34.5033 154.538 31.1163C154.538 27.7292 151.712 25.6124 148.745 25.6124ZM148.886 34.221H145.071V28.1526H148.886C150.864 28.1526 151.995 29.8462 151.995 31.1163C151.854 32.5276 150.723 34.221 148.886 34.221ZM165.135 31.6808C163.156 31.6808 161.178 32.5276 160.472 34.3622L162.874 35.3501C163.439 34.3622 164.287 34.0799 165.276 34.0799C166.689 34.0799 167.961 34.9267 168.102 36.338V36.4791C167.678 36.1968 166.548 35.7735 165.417 35.7735C162.874 35.7735 160.331 37.1847 160.331 39.725C160.331 42.1242 162.45 43.6765 164.711 43.6765C166.548 43.6765 167.395 42.8298 168.102 41.9831H168.243V43.3943H170.786V36.6202C170.504 33.3743 168.102 31.6808 165.135 31.6808ZM164.852 41.2774C164.005 41.2774 162.733 40.854 162.733 39.725C162.733 38.3138 164.287 37.8903 165.558 37.8903C166.689 37.8903 167.254 38.1726 167.961 38.4549C167.678 40.1484 166.265 41.2774 164.852 41.2774ZM179.688 31.9631L176.721 39.5839H176.58L173.471 31.9631H170.645L175.308 42.6887L172.623 48.616H175.308L182.514 31.9631H179.688ZM155.951 43.2531H158.635V25.6124H155.951V43.2531Z" fill="white"/>
<path d="M18.8985 46.7816C18.3333 46.4994 18.0508 45.7937 18.0508 45.0881C18.0508 44.9469 18.0508 44.6647 18.0508 44.5236C18.0508 34.0803 18.0508 23.6369 18.0508 13.3346C18.0508 12.7701 18.1921 12.3468 18.3333 11.7823C18.4747 11.5 18.7572 11.2178 19.0399 10.9355C25.1154 17.0039 31.0497 23.0723 36.9839 29.1408C30.9084 34.7858 24.9741 40.7132 18.8985 46.7816Z" fill="white"/>
<path d="M42.918 22.9303C41.2224 24.6239 39.3856 26.3173 37.6902 28.152C32.0384 22.3658 26.2455 16.5796 20.5938 10.7935C20.5938 10.7935 20.5937 10.6523 20.735 10.6523C28.0823 14.745 35.4294 18.8377 42.918 22.9303Z" fill="white"/>
<path d="M20.5938 46.7808C26.2455 41.1358 32.0384 35.4908 37.6902 29.8457C39.2443 31.3981 40.9399 32.9505 42.7767 34.644C35.4294 38.7367 28.0823 42.8293 20.735 46.7808H20.5938Z" fill="white"/>
<path d="M43.7636 34.0796C41.9268 32.3861 40.2313 30.6925 38.3945 28.9991C40.2313 27.1644 42.0682 25.3298 43.9049 23.4951C44.4701 23.7773 45.0352 24.0596 45.6004 24.483C47.0133 25.3298 48.5676 26.0354 49.9805 26.8821C50.4044 27.0232 50.687 27.3055 50.9695 27.7289C51.5347 28.4345 51.5347 29.1402 50.9695 29.8458C50.687 30.128 50.4044 30.4103 49.9805 30.5514C48.0024 31.8216 45.8831 32.9506 43.7636 34.0796Z" fill="white"/>
</g>
<defs>
<clipPath id="clip0_210_11652">
<rect width="201" height="59" fill="white"/>
</clipPath>
</defs>
</svg>
