<svg width="201" height="59" viewBox="0 0 201 59" fill="none" xmlns="http://www.w3.org/2000/svg">
<g clip-path="url(#clip0_210_11666)">
<path d="M196.133 0.819336H4.10195C2.28955 0.819336 0.820312 2.28685 0.820312 4.09711V54.9027C0.820312 56.7129 2.28955 58.1805 4.10195 58.1805H196.133C197.946 58.1805 199.415 56.7129 199.415 54.9027V4.09711C199.415 2.28685 197.946 0.819336 196.133 0.819336Z" stroke="white" stroke-width="2"/>
<path d="M47.4249 28.1209C47.3869 23.5835 51.1459 21.3718 51.3209 21.273C49.1903 18.172 45.8879 17.7464 44.7236 17.716C41.9463 17.4272 39.2602 19.3729 37.8449 19.3729C36.4067 19.3729 34.2305 17.7464 31.8792 17.7921C28.8583 17.8376 26.0353 19.5857 24.4906 22.2915C21.2947 27.8169 23.6765 35.934 26.743 40.403C28.2724 42.5919 30.0606 45.0316 32.4043 44.9479C34.6946 44.8567 35.5545 43.4887 38.3167 43.4887C41.056 43.4887 41.8625 44.9479 44.2519 44.8948C46.7097 44.8567 48.262 42.6982 49.7381 40.4942C51.5111 37.9861 52.2188 35.516 52.2492 35.3944C52.1884 35.3564 47.4706 33.5551 47.4249 28.1209ZM42.9127 14.7747C44.1453 13.2318 44.9899 11.1418 44.7541 9.01367C42.9735 9.08963 40.7364 10.2449 39.458 11.7498C38.3243 13.0798 37.3046 15.2535 37.571 17.298C39.5646 17.4424 41.6267 16.2871 42.9127 14.7747Z" fill="white"/>
<path d="M80.6157 44.6214H77.4122L75.6545 39.1188H69.5594L67.8854 44.6214H64.7656L70.8074 25.879H74.5359L80.6157 44.6214ZM75.1294 36.8083L73.5391 31.9137C73.3717 31.4121 73.0521 30.234 72.5955 28.3795H72.5423C72.3597 29.1776 72.0553 30.3556 71.652 31.9137L70.0921 36.8083H75.1294ZM96.1238 37.6975C96.1238 39.9929 95.4994 41.8093 94.2516 43.147C93.1326 44.3326 91.7403 44.9254 90.0815 44.9254C88.2856 44.9254 87 44.287 86.2165 43.0101V50.1013H83.2105V35.5466C83.2105 34.1026 83.1728 32.6205 83.0965 31.108H85.744L85.9121 33.2514H85.9646C86.9696 31.6401 88.4915 30.8268 90.5302 30.8268C92.1284 30.8268 93.4599 31.4577 94.5256 32.7193C95.5905 33.981 96.1238 35.6455 96.1238 37.6975ZM93.0645 37.8115C93.0645 36.4967 92.7675 35.4099 92.1743 34.5586C91.527 33.6694 90.6525 33.2285 89.5564 33.2285C88.8188 33.2285 88.1412 33.4793 87.5398 33.9658C86.9393 34.4598 86.543 35.1059 86.3609 35.8962C86.2772 36.1927 86.2313 36.5042 86.2239 36.8083V39.0656C86.2239 40.046 86.5283 40.8744 87.1296 41.5585C87.7302 42.2349 88.5145 42.5769 89.4801 42.5769C90.6139 42.5769 91.4967 42.1361 92.1284 41.2697C92.7445 40.3881 93.0645 39.2404 93.0645 37.8115ZM111.692 37.6975C111.692 39.9929 111.068 41.8093 109.82 43.147C108.701 44.3326 107.309 44.9254 105.65 44.9254C103.854 44.9254 102.568 44.287 101.785 43.0101V50.1013H98.7786V35.5466C98.7786 34.1026 98.7409 32.6205 98.6646 31.108H101.313L101.48 33.2514H101.534C102.538 31.6401 104.06 30.8268 106.099 30.8268C107.697 30.8268 109.029 31.4577 110.094 32.7193C111.152 33.981 111.692 35.6455 111.692 37.6975ZM108.625 37.8115C108.625 36.4967 108.329 35.4099 107.735 34.5586C107.089 33.6694 106.213 33.2285 105.118 33.2285C104.38 33.2285 103.702 33.4793 103.093 33.9658C102.493 34.4598 102.096 35.1059 101.914 35.8962C101.822 36.2687 101.77 36.5727 101.77 36.8083V39.0656C101.77 40.046 102.074 40.8744 102.675 41.5585C103.276 42.2349 104.06 42.5769 105.034 42.5769C106.167 42.5769 107.05 42.1361 107.682 41.2697C108.313 40.3881 108.625 39.2404 108.625 37.8115ZM129.094 39.3696C129.094 40.9657 128.539 42.2653 127.428 43.261C126.211 44.3554 124.498 44.9026 122.314 44.9026C120.298 44.9026 118.678 44.5151 117.452 43.7322L118.144 41.2317C119.461 42.0145 120.914 42.4021 122.489 42.4021C123.623 42.4021 124.506 42.1437 125.137 41.6345C125.769 41.1253 126.088 40.4413 126.088 39.59C126.088 38.83 125.823 38.1916 125.305 37.6671C124.787 37.1503 123.927 36.6639 122.718 36.2231C119.431 34.9994 117.787 33.2057 117.787 30.8573C117.787 29.322 118.365 28.0604 119.529 27.0799C120.686 26.0994 122.223 25.6055 124.141 25.6055C125.846 25.6055 127.268 25.9019 128.402 26.4946L127.649 28.942C126.583 28.3644 125.389 28.0831 124.041 28.0831C122.984 28.0831 122.147 28.3415 121.553 28.8583C121.051 29.322 120.8 29.8844 120.8 30.5533C120.8 31.2904 121.09 31.9061 121.668 32.3849C122.17 32.8258 123.075 33.3122 124.392 33.829C126.005 34.4826 127.192 35.235 127.953 36.1091C128.714 36.9831 129.094 38.07 129.094 39.3696ZM139.062 33.3654H135.745V39.9244C135.745 41.5965 136.33 42.4249 137.503 42.4249C138.043 42.4249 138.484 42.3793 138.842 42.2881L138.925 44.5682C138.332 44.7887 137.556 44.9026 136.59 44.9026C135.402 44.9026 134.474 44.5378 133.804 43.8158C133.135 43.0937 132.8 41.8777 132.8 40.1753V33.3654H130.829V31.1157H132.8V28.638L135.753 27.7487V31.1157H139.07L139.062 33.3654ZM153.984 37.7583C153.984 39.8332 153.391 41.5433 152.204 42.8734C150.963 44.249 149.312 44.9331 147.25 44.9331C145.264 44.9331 143.681 44.2718 142.501 42.9646C141.323 41.6497 140.737 39.9852 140.737 37.9864C140.737 35.8887 141.345 34.1786 142.563 32.8409C143.78 31.5033 145.416 30.842 147.478 30.842C149.464 30.842 151.062 31.5033 152.264 32.8181C153.405 34.0874 153.984 35.7367 153.984 37.7583ZM150.865 37.8267C150.865 36.5879 150.598 35.5239 150.057 34.6422C149.426 33.5706 148.528 33.0309 147.357 33.0309C146.154 33.0309 145.226 33.5706 144.602 34.6422C144.062 35.5314 143.795 36.6107 143.795 37.8875C143.795 39.1264 144.062 40.1904 144.602 41.0797C145.249 42.1513 146.162 42.691 147.334 42.691C148.483 42.691 149.381 42.1437 150.035 41.0569C150.591 40.1372 150.865 39.0656 150.865 37.8267ZM163.762 33.753C163.45 33.6998 163.131 33.6694 162.811 33.6694C161.753 33.6694 160.939 34.0646 160.361 34.8627C159.859 35.5694 159.608 36.4587 159.608 37.5304V44.6214H156.602V35.3642C156.602 33.943 156.579 32.5293 156.518 31.108H159.136L159.242 33.6922H159.326C159.646 32.8029 160.14 32.0885 160.833 31.5489C161.456 31.0776 162.225 30.8268 163.008 30.8268C163.291 30.8268 163.533 30.8497 163.762 30.8801V33.753ZM177.208 37.2263C177.215 37.6824 177.177 38.1384 177.101 38.5868H168.077C168.107 39.9244 168.549 40.9428 169.385 41.6497C170.146 42.2805 171.128 42.5921 172.338 42.5921C173.677 42.5921 174.894 42.3793 175.99 41.9537L176.462 44.0362C175.183 44.591 173.67 44.8722 171.927 44.8722C169.827 44.8722 168.183 44.2566 166.981 43.0254C165.786 41.7941 165.185 40.1372 165.185 38.0623C165.185 36.0254 165.74 34.3306 166.859 32.9778C168.024 31.5337 169.606 30.8116 171.592 30.8116C173.54 30.8116 175.016 31.5337 176.021 32.9778C176.804 34.1254 177.208 35.539 177.208 37.2263ZM174.339 36.4511C174.362 35.5619 174.164 34.7942 173.753 34.1406C173.236 33.3046 172.429 32.8866 171.356 32.8866C170.375 32.8866 169.576 33.2969 168.959 34.1102C168.457 34.7562 168.161 35.539 168.069 36.4435L174.339 36.4511Z" fill="white"/>
<path d="M68.6923 19.2594C67.8553 19.2594 67.1324 19.2214 66.5312 19.153V10.0858C67.3759 9.95661 68.2282 9.88819 69.0804 9.89581C72.5274 9.89581 74.1177 11.5907 74.1177 14.3496C74.1101 17.5341 72.2383 19.2594 68.6923 19.2594ZM69.2021 11.0587C68.738 11.0587 68.3423 11.0891 68.0151 11.1574V18.0434C68.1901 18.0738 68.5326 18.0813 69.0119 18.0813C71.2718 18.0813 72.5578 16.7969 72.5578 14.3952C72.5502 12.2443 71.386 11.0587 69.2021 11.0587ZM79.0637 19.3278C77.1234 19.3278 75.8602 17.8761 75.8602 15.9077C75.8602 13.8555 77.1462 12.3963 79.1703 12.3963C81.0878 12.3963 82.374 13.7796 82.374 15.8012C82.374 17.8761 81.0498 19.3278 79.0637 19.3278ZM79.117 13.4756C78.0517 13.4756 77.3669 14.4712 77.3669 15.8696C77.3669 17.2377 78.0669 18.2333 79.1018 18.2333C80.1443 18.2333 80.8367 17.1693 80.8367 15.8392C80.8443 14.4864 80.1595 13.4756 79.117 13.4756ZM93.4528 12.5331L91.3755 19.1758H90.021L89.1612 16.2953C88.9479 15.5884 88.7658 14.874 88.6288 14.152H88.5984C88.4918 14.874 88.2859 15.6037 88.0652 16.2953L87.152 19.1758H85.7828L83.8269 12.5331H85.3488L86.1019 15.6872C86.2775 16.4396 86.4293 17.1465 86.5515 17.823H86.5819C86.6885 17.2605 86.8706 16.5689 87.1299 15.7025L88.0734 12.5331H89.2753L90.181 15.6341C90.4017 16.3865 90.5764 17.1237 90.7134 17.823H90.7512C90.8504 17.1389 90.9948 16.4169 91.2008 15.6341L92.0072 12.5331H93.4528ZM101.115 19.1758H99.6395V15.3604C99.6395 14.1824 99.1899 13.5972 98.2998 13.5972C97.4252 13.5972 96.8238 14.3496 96.8238 15.2236V19.1758H95.3479V14.4332C95.3479 13.848 95.3323 13.2172 95.2946 12.5331H96.5958L96.6639 13.5591H96.7016C97.0979 12.8524 97.9043 12.3963 98.81 12.3963C100.202 12.3963 101.123 13.4604 101.123 15.2008L101.115 19.1758ZM105.186 19.1758H103.71V9.48535H105.186V19.1758ZM110.581 19.3278C108.641 19.3278 107.378 17.8761 107.378 15.9077C107.378 13.8555 108.664 12.3963 110.688 12.3963C112.605 12.3963 113.892 13.7796 113.892 15.8012C113.892 17.8761 112.56 19.3278 110.581 19.3278ZM110.635 13.4756C109.569 13.4756 108.885 14.4712 108.885 15.8696C108.885 17.2377 109.584 18.2333 110.619 18.2333C111.662 18.2333 112.354 17.1693 112.354 15.8392C112.354 14.4864 111.677 13.4756 110.635 13.4756ZM119.72 19.1758L119.613 18.4081H119.575C119.127 19.0238 118.465 19.3202 117.628 19.3202C116.432 19.3202 115.588 18.4842 115.588 17.3669C115.588 15.7253 117.011 14.8816 119.476 14.8816V14.76C119.476 13.8859 119.013 13.4452 118.099 13.4452C117.445 13.4452 116.866 13.6124 116.364 13.9392L116.067 12.9664C116.684 12.5863 117.452 12.3887 118.351 12.3887C120.085 12.3887 120.968 13.3008 120.968 15.1324V17.5797C120.968 18.2486 120.998 18.7729 121.067 19.1682L119.72 19.1758ZM119.515 15.8696C117.871 15.8696 117.049 16.2649 117.049 17.2073C117.049 17.9065 117.475 18.2486 118.061 18.2486C118.815 18.2486 119.515 17.6785 119.515 16.8957V15.8696ZM128.128 19.1758L128.06 18.1117H128.021C127.596 18.9174 126.88 19.3278 125.884 19.3278C124.278 19.3278 123.091 17.9218 123.091 15.9381C123.091 13.8632 124.324 12.3963 126.005 12.3963C126.896 12.3963 127.527 12.6927 127.877 13.3008H127.907V9.48535H129.383V17.3821C129.383 18.0205 129.399 18.6285 129.437 19.1682H128.128V19.1758ZM127.915 15.2692C127.915 14.342 127.299 13.544 126.355 13.544C125.259 13.544 124.59 14.5168 124.59 15.8773C124.59 17.2149 125.282 18.1346 126.325 18.1346C127.253 18.1346 127.915 17.3289 127.915 16.3713V15.2692ZM138.774 19.3278C136.834 19.3278 135.57 17.8761 135.57 15.9077C135.57 13.8555 136.856 12.3963 138.88 12.3963C140.798 12.3963 142.083 13.7796 142.083 15.8012C142.083 17.8761 140.76 19.3278 138.774 19.3278ZM138.827 13.4756C137.761 13.4756 137.076 14.4712 137.076 15.8696C137.076 17.2377 137.777 18.2333 138.812 18.2333C139.854 18.2333 140.547 17.1693 140.547 15.8392C140.554 14.4864 139.869 13.4756 138.827 13.4756ZM150.036 19.1758H148.559V15.3604C148.559 14.1824 148.11 13.5972 147.22 13.5972C146.344 13.5972 145.744 14.3496 145.744 15.2236V19.1758H144.267V14.4332C144.267 13.848 144.252 13.2172 144.214 12.5331H145.515L145.584 13.5591H145.622C146.018 12.8524 146.824 12.3963 147.729 12.3963C149.122 12.3963 150.043 13.4604 150.043 15.2008V19.1758H150.036ZM159.973 13.6427H158.345V16.8653C158.345 17.6861 158.626 18.0966 159.204 18.0966C159.463 18.0966 159.684 18.0662 159.859 18.0281L159.897 19.1454C159.608 19.2518 159.227 19.3126 158.748 19.3126C157.583 19.3126 156.883 18.6742 156.883 16.9869V13.6352H155.91V12.5255H156.883V11.3094L158.337 10.8687V12.5255H159.966L159.973 13.6427ZM167.803 19.1758H166.326V15.3908C166.326 14.2052 165.878 13.6048 164.987 13.6048C164.219 13.6048 163.512 14.1216 163.512 15.178V19.1834H162.035V9.48535H163.512V13.4756H163.542C164.006 12.7535 164.683 12.3963 165.543 12.3963C166.951 12.3963 167.81 13.4907 167.81 15.2236L167.803 19.1758ZM175.815 16.2117H171.379C171.41 17.4658 172.239 18.1801 173.472 18.1801C174.126 18.1801 174.735 18.0738 175.267 17.8685L175.496 18.8945C174.864 19.1682 174.126 19.305 173.266 19.305C171.189 19.305 169.957 17.9901 169.957 15.9608C169.957 13.924 171.219 12.3963 173.099 12.3963C174.795 12.3963 175.861 13.6503 175.861 15.5505C175.876 15.7633 175.861 15.9912 175.815 16.2117ZM174.461 15.1553C174.461 14.1291 173.944 13.4071 173 13.4071C172.148 13.4071 171.479 14.1444 171.387 15.1553H174.461Z" fill="white"/>
</g>
<defs>
<clipPath id="clip0_210_11666">
<rect width="201" height="59" fill="white"/>
</clipPath>
</defs>
</svg>
