<svg width="24" height="23" viewBox="0 0 24 23" fill="none" xmlns="http://www.w3.org/2000/svg">
<path d="M12.1489 2.5625C10.3402 2.5625 8.57212 3.08668 7.06823 4.06874C5.56434 5.05081 4.3922 6.44665 3.70003 8.07977C3.00787 9.71288 2.82677 11.5099 3.17963 13.2436C3.53249 14.9773 4.40347 16.5698 5.68242 17.8198C6.96138 19.0697 8.59086 19.9209 10.3648 20.2658C12.1388 20.6106 13.9775 20.4336 15.6486 19.7572C17.3196 19.0807 18.7479 17.9352 19.7527 16.4654C20.7576 14.9956 21.2939 13.2677 21.2939 11.5C21.2914 9.1304 20.3271 6.85856 18.6126 5.183C16.8981 3.50743 14.5735 2.565 12.1489 2.5625ZM9.83014 14.9375H14.4677C13.9955 16.5136 13.2041 17.9341 12.1489 19.053C11.0937 17.9341 10.3023 16.5136 9.83014 14.9375ZM9.51094 13.5625C9.27763 12.197 9.27763 10.803 9.51094 9.4375H14.7869C15.0202 10.803 15.0202 12.197 14.7869 13.5625H9.51094ZM4.41084 11.5C4.41022 10.8026 4.50877 10.1084 4.70365 9.4375H8.08555C7.87568 10.8049 7.87568 12.1951 8.08555 13.5625H4.70365C4.50877 12.8916 4.41022 12.1974 4.41084 11.5ZM14.4677 8.0625H9.83014C10.3023 6.48641 11.0937 5.06586 12.1489 3.94695C13.2041 5.06586 13.9955 6.48641 14.4677 8.0625ZM16.2123 9.4375H19.5942C19.9846 10.786 19.9846 12.214 19.5942 13.5625H16.2123C16.4222 12.1951 16.4222 10.8049 16.2123 9.4375ZM19.0402 8.0625H15.9248C15.5658 6.68192 14.9629 5.37321 14.1432 4.19531C15.1904 4.47033 16.1671 4.95648 17.0104 5.6225C17.8538 6.28852 18.5452 7.11967 19.0402 8.0625ZM10.1546 4.19531C9.33498 5.37321 8.73209 6.68192 8.37309 8.0625H5.25763C5.75263 7.11967 6.44404 6.28852 7.28742 5.6225C8.1308 4.95648 9.10746 4.47033 10.1546 4.19531ZM5.25763 14.9375H8.37309C8.73209 16.3181 9.33498 17.6268 10.1546 18.8047C9.10746 18.5297 8.1308 18.0435 7.28742 17.3775C6.44404 16.7115 5.75263 15.8803 5.25763 14.9375ZM14.1432 18.8047C14.9629 17.6268 15.5658 16.3181 15.9248 14.9375H19.0402C18.5452 15.8803 17.8538 16.7115 17.0104 17.3775C16.1671 18.0435 15.1904 18.5297 14.1432 18.8047Z" fill="black"/>
</svg>
