<svg width="110" height="11" viewBox="0 0 110 11" fill="none" xmlns="http://www.w3.org/2000/svg">
<path d="M2.69229 10.2594C1.85531 10.2594 1.13245 10.2214 0.53125 10.153V1.08584C1.37594 0.956614 2.22818 0.888191 3.08042 0.895812C6.52737 0.895812 8.11773 2.59067 8.11773 5.34957C8.1101 8.5341 6.23826 10.2594 2.69229 10.2594ZM3.20209 2.05869C2.73798 2.05869 2.3423 2.08909 2.01512 2.15743V9.04338C2.19012 9.07378 2.53255 9.08132 3.01192 9.08132C5.27181 9.08132 6.55781 7.79693 6.55781 5.39522C6.55018 3.24434 5.38602 2.05869 3.20209 2.05869ZM13.0637 10.3278C11.1234 10.3278 9.86019 8.87613 9.86019 6.90767C9.86019 4.85553 11.1462 3.39635 13.1703 3.39635C15.0878 3.39635 16.374 4.77957 16.374 6.80122C16.374 8.87613 15.0498 10.3278 13.0637 10.3278ZM13.117 4.47556C12.0517 4.47556 11.3669 5.47118 11.3669 6.86964C11.3669 8.23771 12.0669 9.23333 13.1018 9.23333C14.1443 9.23333 14.8367 8.16928 14.8367 6.83924C14.8443 5.48642 14.1595 4.47556 13.117 4.47556ZM27.4528 3.53311L25.3755 10.1758H24.021L23.1612 7.29526C22.9479 6.58841 22.7658 5.87402 22.6288 5.15201H22.5984C22.4918 5.87402 22.2859 6.60365 22.0652 7.29526L21.152 10.1758H19.7828L17.8269 3.53311H19.3488L20.1019 6.68724C20.2775 7.43965 20.4293 8.1465 20.5515 8.82295H20.5819C20.6885 8.26049 20.8706 7.56888 21.1299 6.70248L22.0734 3.53311H23.2753L24.181 6.63405C24.4017 7.38647 24.5764 8.12372 24.7134 8.82295H24.7512C24.8504 8.13888 24.9948 7.41687 25.2008 6.63405L26.0072 3.53311H27.4528ZM35.1154 10.1758H33.6395V6.36044C33.6395 5.18241 33.1899 4.59716 32.2998 4.59716C31.4252 4.59716 30.8238 5.34957 30.8238 6.22359V10.1758H29.3479V5.43316C29.3479 4.84799 29.3323 4.21718 29.2946 3.53311H30.5958L30.6639 4.55914H30.7016C31.0979 3.85237 31.9043 3.39635 32.81 3.39635C34.2023 3.39635 35.1228 4.4604 35.1228 6.20081L35.1154 10.1758ZM39.1863 10.1758H37.7103V0.485352H39.1863V10.1758ZM44.5813 10.3278C42.641 10.3278 41.3776 8.87613 41.3776 6.90767C41.3776 4.85553 42.664 3.39635 44.6879 3.39635C46.6052 3.39635 47.8916 4.77957 47.8916 6.80122C47.8916 8.87613 46.5601 10.3278 44.5813 10.3278ZM44.6346 4.47556C43.5689 4.47556 42.8847 5.47118 42.8847 6.86964C42.8847 8.23771 43.5845 9.23333 44.619 9.23333C45.6617 9.23333 46.3542 8.16928 46.3542 6.83924C46.3542 5.48642 45.6773 4.47556 44.6346 4.47556ZM53.7198 10.1758L53.6131 9.40812H53.5754C53.1266 10.0238 52.4646 10.3202 51.6278 10.3202C50.4324 10.3202 49.5882 9.48416 49.5882 8.36693C49.5882 6.72526 51.0108 5.88164 53.4761 5.88164V5.76003C53.4761 4.88593 53.0126 4.44515 52.0995 4.44515C51.4448 4.44515 50.8664 4.6124 50.3643 4.9392L50.0673 3.96635C50.6843 3.58629 51.4522 3.38873 52.3505 3.38873C54.0849 3.38873 54.9676 4.30077 54.9676 6.13239V8.57974C54.9676 9.24857 54.998 9.77294 55.0669 10.1682L53.7198 10.1758ZM53.5147 6.86964C51.8706 6.86964 51.0494 7.26486 51.0494 8.2073C51.0494 8.90654 51.4752 9.24857 52.0609 9.24857C52.8149 9.24857 53.5147 8.67848 53.5147 7.89567V6.86964ZM62.1282 10.1758L62.0601 9.11173H62.0215C61.5957 9.9174 60.8803 10.3278 59.8835 10.3278C58.278 10.3278 57.0908 8.92178 57.0908 6.93807C57.0908 4.86315 58.3239 3.39635 60.0049 3.39635C60.8959 3.39635 61.5268 3.69274 61.8771 4.30077H61.9075V0.485352H63.3834V8.38209C63.3834 9.02052 63.399 9.62855 63.4367 10.1682H62.1282V10.1758ZM61.9148 6.26924C61.9148 5.34195 61.2987 4.54398 60.3553 4.54398C59.2592 4.54398 58.5897 5.51682 58.5897 6.87726C58.5897 8.21493 59.2822 9.13459 60.3249 9.13459C61.2528 9.13459 61.9148 8.32891 61.9148 7.37131V6.26924ZM72.7738 10.3278C70.8335 10.3278 69.5701 8.87613 69.5701 6.90767C69.5701 4.85553 70.8557 3.39635 72.8804 3.39635C74.7977 3.39635 76.0833 4.77957 76.0833 6.80122C76.0833 8.87613 74.76 10.3278 72.7738 10.3278ZM72.8271 4.47556C71.7614 4.47556 71.0763 5.47118 71.0763 6.86964C71.0763 8.23771 71.777 9.23333 72.8115 9.23333C73.8542 9.23333 74.5467 8.16928 74.5467 6.83924C74.5541 5.48642 73.869 4.47556 72.8271 4.47556ZM84.0355 10.1758H82.5588V6.36044C82.5588 5.18241 82.11 4.59716 81.2199 4.59716C80.3445 4.59716 79.744 5.34957 79.744 6.22359V10.1758H78.2672V5.43316C78.2672 4.84799 78.2524 4.21718 78.2139 3.53311H79.5151L79.584 4.55914H79.6217C80.018 3.85237 80.8244 3.39635 81.7293 3.39635C83.1224 3.39635 84.0429 4.4604 84.0429 6.20081V10.1758H84.0355ZM93.9731 4.64272H92.3446V7.86527C92.3446 8.68611 92.626 9.09657 93.2044 9.09657C93.4628 9.09657 93.6835 9.06616 93.8591 9.02814L93.8968 10.1454C93.608 10.2518 93.2274 10.3126 92.7482 10.3126C91.5833 10.3126 90.8835 9.67419 90.8835 7.98687V4.63518H89.9096V3.52549H90.8835V2.30943L92.3372 1.86866V3.52549H93.9657L93.9731 4.64272ZM101.803 10.1758H100.326V6.39084C100.326 5.20519 99.8776 4.60478 98.9874 4.60478C98.2187 4.60478 97.5115 5.1216 97.5115 6.17803V10.1834H96.0348V0.485352H97.5115V4.47556H97.5419C98.0062 3.75354 98.6831 3.39635 99.5429 3.39635C100.951 3.39635 101.81 4.49071 101.81 6.22359L101.803 10.1758ZM109.815 7.21168H105.379C105.41 8.46576 106.239 9.18015 107.472 9.18015C108.126 9.18015 108.735 9.07378 109.267 8.86851L109.496 9.89454C108.864 10.1682 108.126 10.305 107.266 10.305C105.189 10.305 103.957 8.99012 103.957 6.96085C103.957 4.92396 105.219 3.39635 107.099 3.39635C108.795 3.39635 109.861 4.65034 109.861 6.55047C109.876 6.76328 109.861 6.99125 109.815 7.21168ZM108.461 6.15525C108.461 5.12914 107.944 4.40713 107 4.40713C106.148 4.40713 105.479 5.14438 105.387 6.15525H108.461Z" fill="white"/>
</svg>
