<svg width="10" height="10" viewBox="0 0 10 10" fill="none" xmlns="http://www.w3.org/2000/svg">
<path d="M7.89884 8.27367C7.05136 9.1204 6.06195 9.54381 4.79031 9.54381C3.51868 9.54381 2.53009 9.1204 1.68179 8.27367C0.83431 7.42686 0.410156 6.43902 0.410156 5.16888C0.410156 3.89874 0.83431 2.9109 1.68179 2.06408C2.53009 1.21735 3.51868 0.793945 4.79031 0.793945C6.06195 0.793945 7.05136 1.21735 7.89884 2.06408C8.74632 2.9109 9.17048 3.89874 9.17048 5.16888C9.17048 6.29791 8.74632 7.42686 7.89884 8.27367ZM2.53009 7.56805C3.09535 8.13256 3.94283 8.55589 4.79031 8.55589C5.63862 8.55589 6.48609 8.27367 7.05135 7.56805C7.61662 7.00353 8.03995 6.1568 8.03995 5.16888C8.03995 4.18096 7.75773 3.33422 7.05135 2.76971C6.48609 2.20519 5.63862 1.78187 4.79031 1.78187C3.94283 1.78187 3.09535 2.06408 2.53009 2.76971C1.96483 3.33422 1.54068 4.18096 1.54068 5.16888C1.54068 6.01561 1.82372 6.86242 2.53009 7.56805Z" fill="white" stroke="white" stroke-width="0.2" stroke-miterlimit="10"/>
</svg>
