<svg width="114" height="26" viewBox="0 0 114 26" fill="none" xmlns="http://www.w3.org/2000/svg">
<path d="M16.6157 19.6214H13.4122L11.6545 14.1188H5.55943L3.88539 19.6214H0.765625L6.80736 0.879H10.5359L16.6157 19.6214ZM11.1294 11.8083L9.53907 6.91372C9.37171 6.41205 9.05208 5.23402 8.59552 3.37953H8.54228C8.35965 4.17759 8.05528 5.35562 7.65197 6.91372L6.09213 11.8083H11.1294ZM32.1238 12.6975C32.1238 14.9929 31.4994 16.8093 30.2516 18.147C29.1326 19.3326 27.7403 19.9254 26.0815 19.9254C24.2856 19.9254 23 19.287 22.2165 18.0101V25.1013H19.2105V10.5466C19.2105 9.10262 19.1728 7.62049 19.0965 6.10804H21.744L21.9121 8.25138H21.9646C22.9696 6.6401 24.4915 5.8268 26.5302 5.8268C28.1284 5.8268 29.4599 6.4577 30.5256 7.71931C31.5905 8.98101 32.1238 10.6455 32.1238 12.6975ZM29.0645 12.8115C29.0645 11.4967 28.7675 10.4099 28.1743 9.55864C27.527 8.66938 26.6525 8.22851 25.5564 8.22851C24.8188 8.22851 24.1412 8.47935 23.5398 8.96577C22.9393 9.45981 22.543 10.1059 22.3609 10.8962C22.2772 11.1927 22.2313 11.5042 22.2239 11.8083V14.0656C22.2239 15.046 22.5283 15.8744 23.1296 16.5585C23.7302 17.2349 24.5145 17.5769 25.4801 17.5769C26.6139 17.5769 27.4967 17.1361 28.1284 16.2697C28.7445 15.3881 29.0645 14.2404 29.0645 12.8115ZM47.6918 12.6975C47.6918 14.9929 47.0683 16.8093 45.8196 18.147C44.7014 19.3326 43.3092 19.9254 41.6503 19.9254C39.8545 19.9254 38.5681 19.287 37.7846 18.0101V25.1013H34.7786V10.5466C34.7786 9.10262 34.7409 7.62049 34.6646 6.10804H37.3128L37.4802 8.25138H37.5335C38.5377 6.6401 40.0596 5.8268 42.0991 5.8268C43.6973 5.8268 45.0288 6.4577 46.0937 7.71931C47.152 8.98101 47.6918 10.6455 47.6918 12.6975ZM44.6251 12.8115C44.6251 11.4967 44.329 10.4099 43.735 9.55864C43.0885 8.66938 42.2131 8.22851 41.1179 8.22851C40.3795 8.22851 39.7019 8.47935 39.0931 8.96577C38.4926 9.45981 38.0963 10.1059 37.9142 10.8962C37.8223 11.2687 37.7698 11.5727 37.7698 11.8083V14.0656C37.7698 15.046 38.0742 15.8744 38.6747 16.5585C39.2761 17.2349 40.0596 17.5769 41.0342 17.5769C42.1672 17.5769 43.05 17.1361 43.6817 16.2697C44.3134 15.3881 44.6251 14.2404 44.6251 12.8115ZM65.0943 14.3696C65.0943 15.9657 64.5389 17.2653 63.4281 18.261C62.2106 19.3554 60.4984 19.9026 58.3145 19.9026C56.2979 19.9026 54.6776 19.5151 53.4519 18.7322L54.1443 16.2317C55.4611 17.0145 56.914 17.4021 58.4892 17.4021C59.623 17.4021 60.5058 17.1437 61.1375 16.6345C61.7692 16.1253 62.0883 15.4413 62.0883 14.59C62.0883 13.83 61.8225 13.1916 61.3049 12.6671C60.7872 12.1503 59.9274 11.6639 58.7181 11.2231C55.4307 9.99942 53.7866 8.20573 53.7866 5.85729C53.7866 4.32198 54.365 3.06036 55.5292 2.0799C56.686 1.09943 58.2234 0.605469 60.1407 0.605469C61.8455 0.605469 63.2681 0.901864 64.4019 1.49465L63.6488 3.942C62.5831 3.36438 61.3885 3.08314 60.0414 3.08314C58.9839 3.08314 58.1471 3.34151 57.5531 3.85834C57.051 4.32198 56.8 4.88445 56.8 5.55328C56.8 6.29045 57.0896 6.9061 57.668 7.3849C58.1701 7.82576 59.075 8.31218 60.3917 8.829C62.0047 9.48259 63.1918 10.235 63.9531 11.1091C64.7137 11.9831 65.0943 13.07 65.0943 14.3696ZM75.0623 8.36536H71.7446V14.9244C71.7446 16.5965 72.3303 17.4249 73.5027 17.4249C74.0425 17.4249 74.4839 17.3793 74.8416 17.2881L74.9253 19.5682C74.3321 19.7887 73.556 19.9026 72.5896 19.9026C71.4024 19.9026 70.4737 19.5378 69.8043 18.8158C69.1348 18.0937 68.8001 16.8777 68.8001 15.1753V8.36536H66.8295V6.11566H68.8001V3.63799L71.7528 2.74873V6.11566H75.0697L75.0623 8.36536ZM89.9839 12.7583C89.9839 14.8332 89.3907 16.5433 88.2036 17.8734C86.9631 19.249 85.3125 19.9331 83.25 19.9331C81.2637 19.9331 79.6812 19.2718 78.5014 17.9646C77.3225 16.6497 76.7367 14.9852 76.7367 12.9864C76.7367 10.8887 77.3455 9.17858 78.563 7.84092C79.7805 6.50326 81.4163 5.84205 83.478 5.84205C85.4642 5.84205 87.0624 6.50326 88.2643 7.81814C89.4055 9.08737 89.9839 10.7367 89.9839 12.7583ZM86.8647 12.8267C86.8647 11.5879 86.598 10.5239 86.0574 9.64222C85.4265 8.57055 84.5282 8.03095 83.3566 8.03095C82.1539 8.03095 81.226 8.57055 80.6017 9.64222C80.0619 10.5314 79.7952 11.6107 79.7952 12.8875C79.7952 14.1264 80.0619 15.1904 80.6017 16.0797C81.249 17.1513 82.1621 17.691 83.3336 17.691C84.483 17.691 85.3806 17.1437 86.0352 16.0569C86.5907 15.1372 86.8647 14.0656 86.8647 12.8267ZM99.7623 8.75296C99.4497 8.69978 99.1306 8.66938 98.8106 8.66938C97.7531 8.66938 96.9393 9.0646 96.3609 9.86265C95.8588 10.5694 95.6078 11.4587 95.6078 12.5304V19.6214H92.6018V10.3642C92.6018 8.94299 92.5788 7.52928 92.5181 6.10804H95.136L95.2419 8.69216H95.3255C95.6455 7.80289 96.1402 7.08851 96.8326 6.5489C97.4561 6.07764 98.2249 5.8268 99.0084 5.8268C99.2906 5.8268 99.5334 5.84967 99.7623 5.88007V8.75296ZM113.208 12.2263C113.215 12.6824 113.177 13.1384 113.101 13.5868H104.077C104.107 14.9244 104.549 15.9428 105.385 16.6497C106.146 17.2805 107.128 17.5921 108.338 17.5921C109.677 17.5921 110.894 17.3793 111.99 16.9537L112.462 19.0362C111.183 19.591 109.67 19.8722 107.927 19.8722C105.827 19.8722 104.183 19.2566 102.981 18.0254C101.786 16.7941 101.185 15.1372 101.185 13.0623C101.185 11.0254 101.74 9.33059 102.859 7.97776C104.024 6.53366 105.606 5.81165 107.592 5.81165C109.54 5.81165 111.016 6.53366 112.021 7.97776C112.804 9.1254 113.208 10.539 113.208 12.2263ZM110.339 11.4511C110.362 10.5619 110.164 9.79423 109.753 9.14056C109.236 8.30456 108.429 7.88656 107.356 7.88656C106.375 7.88656 105.576 8.29694 104.959 9.11016C104.457 9.75621 104.161 10.539 104.069 11.4435L110.339 11.4511Z" fill="white"/>
</svg>
