<svg width="121" height="24" viewBox="0 0 121 24" fill="none" xmlns="http://www.w3.org/2000/svg">
<path d="M39.1294 6.68076C35.7386 6.68076 33.0542 9.22104 33.0542 12.7492C33.0542 16.1362 35.7386 18.8176 39.1294 18.8176C42.5201 18.8176 45.2053 16.2774 45.2053 12.7492C45.2053 9.22104 42.5201 6.68076 39.1294 6.68076ZM39.1294 16.2774C37.2925 16.2774 35.7386 14.725 35.7386 12.6081C35.7386 10.4912 37.2925 8.93882 39.1294 8.93882C40.9663 8.93882 42.5201 10.3501 42.5201 12.6081C42.5201 14.8661 40.9663 16.2774 39.1294 16.2774ZM25.9889 6.68076C22.5981 6.68076 19.9137 9.22104 19.9137 12.7492C19.9137 16.1362 22.5981 18.8176 25.9889 18.8176C29.3805 18.8176 32.0648 16.2774 32.0648 12.7492C32.0648 9.22104 29.3805 6.68076 25.9889 6.68076ZM25.9889 16.2774C24.1528 16.2774 22.5981 14.725 22.5981 12.6081C22.5981 10.4912 24.1528 8.93882 25.9889 8.93882C27.8258 8.93882 29.3805 10.3501 29.3805 12.6081C29.3805 14.8661 27.8258 16.2774 25.9889 16.2774ZM10.3058 8.51541V11.0557H16.3813C16.2401 12.467 15.6749 13.596 14.9684 14.3016C14.1207 15.1483 12.7077 16.1362 10.3058 16.1362C6.4909 16.1362 3.66501 13.1726 3.66501 9.36223C3.66501 5.55181 6.63218 2.58813 10.3058 2.58813C12.2839 2.58813 13.8381 3.43486 14.9684 4.42278L16.8052 2.58813C15.251 1.17688 13.2729 0.0478516 10.4471 0.0478516C5.36055 0.0478516 0.980469 4.28167 0.980469 9.36223C0.980469 14.4427 5.36055 18.6765 10.4471 18.6765C13.2729 18.6765 15.251 17.8298 16.9465 15.9951C18.6421 14.3016 19.2071 11.9024 19.2071 10.0679C19.2071 9.50334 19.2072 8.93882 19.0659 8.51541H10.3058ZM74.4529 10.4912C73.8876 9.07993 72.474 6.68076 69.3663 6.68076C66.2578 6.68076 63.7145 9.07993 63.7145 12.7492C63.7145 16.1362 66.2578 18.8176 69.6486 18.8176C72.3329 18.8176 74.0287 17.1242 74.594 16.1362L72.616 14.725C71.9096 15.7128 71.0613 16.4185 69.6486 16.4185C68.2358 16.4185 67.3875 15.854 66.6811 14.5839L74.7351 11.1968L74.4529 10.4912ZM66.2578 12.467C66.2578 10.209 68.0947 8.93882 69.3663 8.93882C70.3549 8.93882 71.3443 9.50334 71.6266 10.209L66.2578 12.467ZM59.6166 18.2531H62.301V0.612367H59.6166V18.2531ZM55.3784 7.9509C54.6712 7.24528 53.5415 6.53965 52.1279 6.53965C49.1613 6.53965 46.335 9.22104 46.335 12.6081C46.335 15.9951 49.0202 18.5354 52.1279 18.5354C53.5415 18.5354 54.6712 17.8298 55.2364 17.1242H55.3784V17.9709C55.3784 20.2289 54.1067 21.499 52.1279 21.499C50.5741 21.499 49.4435 20.3701 49.1613 19.3821L46.9003 20.3701C47.6067 21.9224 49.3024 23.8982 52.2698 23.8982C55.3784 23.8982 57.9216 22.0635 57.9216 17.6887V6.96306H55.3784V7.9509ZM52.2698 16.2774C50.433 16.2774 48.8783 14.725 48.8783 12.6081C48.8783 10.4912 50.433 8.93882 52.2698 8.93882C54.1067 8.93882 55.5195 10.4912 55.5195 12.6081C55.5195 14.725 54.1067 16.2774 52.2698 16.2774ZM86.745 0.612367H80.3869V18.2531H83.0712V11.6202H86.745C89.7116 11.6202 92.5379 9.50334 92.5379 6.11633C92.5379 2.72924 89.7116 0.612367 86.745 0.612367ZM86.8862 9.22104H83.0712V3.15264H86.8862C88.8642 3.15264 89.9947 4.84619 89.9947 6.11633C89.8536 7.52757 88.723 9.22104 86.8862 9.22104ZM103.135 6.68076C101.156 6.68076 99.1783 7.52758 98.472 9.36223L100.874 10.3501C101.439 9.36223 102.287 9.07993 103.276 9.07993C104.689 9.07993 105.961 9.92674 106.102 11.338V11.4791C105.678 11.1968 104.548 10.7735 103.417 10.7735C100.874 10.7735 98.3308 12.1847 98.3308 14.725C98.3308 17.1242 100.45 18.6765 102.711 18.6765C104.548 18.6765 105.395 17.8298 106.102 16.9831H106.243V18.3943H108.786V11.6202C108.504 8.37431 106.102 6.68076 103.135 6.68076ZM102.852 16.2774C102.005 16.2774 100.733 15.854 100.733 14.725C100.733 13.3138 102.287 12.8903 103.558 12.8903C104.689 12.8903 105.254 13.1726 105.961 13.4549C105.678 15.1484 104.265 16.2774 102.852 16.2774ZM117.688 6.96306L114.721 14.5839H114.58L111.471 6.96306H108.645L113.308 17.6887L110.623 23.616H113.308L120.514 6.96306H117.688ZM93.9507 18.2531H96.6351V0.612367H93.9507V18.2531Z" fill="white"/>
</svg>
