<svg width="9" height="10" viewBox="0 0 9 10" fill="none" xmlns="http://www.w3.org/2000/svg">
<path d="M8.87987 5.45109C8.87987 6.58012 8.59732 7.56805 7.89087 8.27367C7.04306 9.1204 6.05405 9.54381 4.78242 9.54381C3.51079 9.54381 2.5217 9.1204 1.67397 8.27367C0.826245 7.42686 0.402344 6.43902 0.402344 5.16888C0.402344 3.89874 0.826245 2.9109 1.67397 2.06408C2.5217 1.21735 3.51079 0.793945 4.78242 0.793945C5.3476 0.793945 5.91278 0.935053 6.47787 1.21735C7.04305 1.49957 7.46696 1.78187 7.74951 2.20519L7.04305 2.91082C6.47788 2.20519 5.77142 1.92298 4.78242 1.92298C3.93461 1.92298 3.08688 2.20519 2.5217 2.91082C1.81525 3.47533 1.5327 4.32215 1.5327 5.30999C1.5327 6.29791 1.81525 7.14464 2.5217 7.70915C3.22816 8.27367 3.93461 8.697 4.78242 8.697C5.77142 8.697 6.47787 8.41478 7.18441 7.70915C7.60823 7.28575 7.89087 6.72123 7.89087 6.01561H4.78242V5.02777H8.87987C8.87987 5.02777 8.87987 5.16888 8.87987 5.45109Z" fill="white" stroke="white" stroke-width="0.2" stroke-miterlimit="10"/>
</svg>
