<svg width="31" height="36" viewBox="0 0 31 36" fill="none" xmlns="http://www.w3.org/2000/svg">
<path d="M25.4249 19.1209C25.3869 14.5835 29.1459 12.3718 29.3209 12.273C27.1903 9.17203 23.8879 8.74641 22.7236 8.71601C19.9463 8.42724 17.2602 10.3729 15.8449 10.3729C14.4067 10.3729 12.2305 8.74641 9.87924 8.79205C6.85834 8.83761 4.03531 10.5857 2.49065 13.2915C-0.705252 18.8169 1.67647 26.934 4.743 31.403C6.2724 33.5919 8.06064 36.0316 10.4043 35.9479C12.6946 35.8567 13.5545 34.4887 16.3167 34.4887C19.056 34.4887 19.8625 35.9479 22.2519 35.8948C24.7097 35.8567 26.262 33.6982 27.7381 31.4942C29.5111 28.9861 30.2188 26.516 30.2492 26.3944C30.1884 26.3564 25.4706 24.5551 25.4249 19.1209ZM20.9127 5.77469C22.1453 4.23184 22.9899 2.14177 22.7541 0.0136719C20.9735 0.0896344 18.7364 1.24489 17.458 2.7498C16.3243 4.07984 15.3046 6.25349 15.571 8.29801C17.5646 8.44239 19.6267 7.28714 20.9127 5.77469Z" fill="white"/>
</svg>
